<svg xmlns="http://www.w3.org/2000/svg" viewBox="0 0 1200 820" preserveAspectRatio="none">
  <path fill="#fff" d="M73 66
    C112 42 149 60 189 47
    C233 33 280 55 327 41
    C385 24 429 57 486 44
    C544 31 593 54 650 43
    C705 33 748 60 805 45
    C858 31 904 60 959 47
    C1008 36 1059 60 1110 51
    C1145 45 1169 66 1149 102
    C1178 138 1154 177 1165 221
    C1176 266 1148 307 1168 350
    C1186 387 1150 435 1160 478
    C1170 520 1140 559 1154 603
    C1169 650 1140 689 1146 736
    C1150 781 1116 796 1070 780
    C1016 813 964 780 906 790
    C846 801 790 768 731 780
    C670 794 620 761 558 778
    C497 795 446 760 388 777
    C333 793 286 762 229 780
    C172 798 120 770 84 788
    C49 770 28 731 47 693
    C24 650 49 612 34 564
    C19 517 49 475 36 428
    C24 382 53 343 39 298
    C23 249 58 207 41 157
    C28 118 39 83 73 66 Z"/>
</svg>
