<svg xmlns="http://www.w3.org/2000/svg" viewBox="0 0 100 100" preserveAspectRatio="none">
  <path fill="#fff" d="
    M 4.2 3.8
    C 8 4.6 10.5 3.2 14 3.8
    C 18.5 4.6 22 3.1 26 3.8
    C 31 4.5 35 3.4 39 3.9
    C 43 4.4 47.5 3.2 52 3.8
    C 56.5 4.5 60.5 3.4 65 3.8
    C 70 4.3 74 3.2 78.5 3.9
    C 83 4.7 88 3.1 92 3.8
    C 94.5 4.2 96 4.6 96.2 6
    C 95.4 10 96.8 14 96.2 18
    C 95.5 22.5 96.8 27 96.1 31
    C 95.4 35.5 96.8 40 96.2 44
    C 95.5 49 96.8 53 96.1 57.5
    C 95.4 62 96.8 66.5 96.2 71
    C 95.5 75.5 96.7 80 96.1 84.5
    C 95.4 89 96.8 92.5 95.9 96
    C 91.5 95.3 88 96.8 83.5 96
    C 79 95.2 75 96.7 70.5 96
    C 66 95.2 61.5 96.8 57 96
    C 52.5 95.3 48 96.8 43.5 96
    C 39 95.2 35 96.7 30.5 96
    C 26 95.2 21.5 96.8 17 96
    C 12.5 95.3 8.5 96.7 4.1 95.9
    C 4.8 91.5 3.2 88 3.9 83.5
    C 4.7 79 3.2 75 3.9 70.5
    C 4.6 66 3.2 61.5 3.9 57
    C 4.7 52.5 3.2 48 3.9 43.5
    C 4.6 39 3.2 35 3.9 30.5
    C 4.7 26 3.2 21.5 3.9 17
    C 4.6 12.5 3.2 8 4.2 3.8 Z"/>
</svg>
